{"asset":{"version":"2.0","generator":"babylon.js glTF exporter for 3ds max 2018 v1.3.32"},"scene":0,"scenes":[{"nodes":[0,1],"extensions":{}}],"nodes":[{"mesh":0,"translation":[0.0,0.0,0.0],"rotation":[-4.37113741E-08,7.54978942E-08,1.62920685E-07,1.0],"scale":[0.03428886,0.022167528,0.0155889187],"name":"Cylinder010"},{"translation":[0.0,0.0,0.0],"rotation":[0.0,0.0,0.0,1.0],"scale":[1.0,1.0,1.0],"name":"Default light"}],"meshes":[{"primitives":[{"attributes":{"POSITION":1,"NORMAL":2,"TEXCOORD_0":3},"indices":0}],"name":"Cylinder010"}],"accessors":[{"bufferView":0,"componentType":5123,"count":31188,"type":"SCALAR","name":"accessorIndices"},{"bufferView":1,"componentType":5126,"count":31188,"max":[10.8835545,11.6003447,10.8941021],"min":[-10.8835583,-11.6003523,-10.8941078],"type":"VEC3","name":"accessorPositions"},{"bufferView":1,"byteOffset":374256,"componentType":5126,"count":31188,"type":"VEC3","name":"accessorNormals"},{"bufferView":2,"componentType":5126,"count":31188,"type":"VEC2","name":"accessorUVs"}],"bufferViews":[{"buffer":0,"byteLength":62376,"name":"bufferViewScalar"},{"buffer":0,"byteOffset":62376,"byteLength":748512,"byteStride":12,"name":"bufferViewFloatVec3"},{"buffer":0,"byteOffset":810888,"byteLength":249504,"byteStride":8,"name":"bufferViewFloatVec2"}],"buffers":[{"uri":"cradle2.bin","byteLength":1060392}]}